{
	"asset":{
		"generator":"Khronos glTF Blender I/O v4.5.47",
		"version":"2.0"
	},
	"scene":0,
	"scenes":[
		{
			"name":"Scene",
			"nodes":[
				0,
				1,
				2,
				3,
				4,
				5,
				6,
				7,
				8,
				9,
				10,
				11,
				12,
				13,
				14,
				15,
				16,
				17
			]
		}
	],
	"nodes":[
		{
			"mesh":0,
			"name":"Rectangular Mullion 30mm Square [458426]",
			"rotation":[
				-0.7071068286895752,
				0,
				-0.7071067094802856,
				5.338508302088485e-08
			],
			"scale":[
				0.30480000376701355,
				0.30480000376701355,
				0.30480000376701355
			],
			"translation":[
				-21.797075271606445,
				3.734999895095825,
				-0.6798184514045715
			]
		},
		{
			"mesh":1,
			"name":"Muro b\u00e1sico Muro en ladrillo 12 cm [216100]",
			"scale":[
				0.30480000376701355,
				0.30480000376701355,
				0.30480000376701355
			]
		},
		{
			"mesh":2,
			"name":"M_W Shapes W310X38.7 [377727]",
			"rotation":[
				0,
				-1,
				0,
				7.549790836947068e-08
			],
			"scale":[
				0.30480000376701355,
				0.30480000376701355,
				0.30480000376701355
			],
			"translation":[
				-18.50157356262207,
				2.544999837875366,
				-0.5528184175491333
			]
		},
		{
			"mesh":3,
			"name":"M_Single-Flush 0762 x 2134mm [216736]",
			"scale":[
				0.30480000376701355,
				0.30480000376701355,
				0.30480000376701355
			],
			"translation":[
				-10.996451377868652,
				0,
				-6.092818260192871
			]
		},
		{
			"mesh":4,
			"name":"Cubierta b\u00e1sica Generic Roof - 300mm [384559]",
			"scale":[
				0.30480000376701355,
				0.30480000376701355,
				0.30480000376701355
			]
		},
		{
			"mesh":5,
			"name":"Place_Holder_Props",
			"scale":[
				0.30480000376701355,
				0.30480000376701355,
				0.30480000376701355
			],
			"translation":[
				-6.510188579559326,
				0,
				-6.0328192710876465
			]
		},
		{
			"mesh":6,
			"name":"Suelo SUELO VERDE - 20 cm [387457]",
			"scale":[
				0.30480000376701355,
				0.30480000376701355,
				0.30480000376701355
			]
		},
		{
			"mesh":7,
			"name":"Suelo Placa - Entrepiso 10cm con mortero de nivelaci\u00f3n_d48921f",
			"scale":[
				0.30480000376701355,
				0.30480000376701355,
				0.30480000376701355
			]
		},
		{
			"mesh":8,
			"name":"Suelo Solado 1.5cm - acabado en deck [443873]",
			"scale":[
				0.30480000376701355,
				0.30480000376701355,
				0.30480000376701355
			]
		},
		{
			"mesh":9,
			"name":"Plataforma Pad 2 [328773]",
			"scale":[
				0.30480000376701355,
				0.30480000376701355,
				0.30480000376701355
			]
		},
		{
			"mesh":10,
			"name":"Superficie  [212898]",
			"scale":[
				0.30480000376701355,
				0.30480000376701355,
				0.30480000376701355
			]
		},
		{
			"mesh":11,
			"name":"Subregi\u00f3n  [317538]",
			"scale":[
				0.30480000376701355,
				0.30480000376701355,
				0.30480000376701355
			]
		},
		{
			"mesh":12,
			"name":"Subregi\u00f3n  [318027]",
			"scale":[
				0.30480000376701355,
				0.30480000376701355,
				0.30480000376701355
			]
		},
		{
			"mesh":13,
			"name":"Subregi\u00f3n  [320949]",
			"scale":[
				0.30480000376701355,
				0.30480000376701355,
				0.30480000376701355
			]
		},
		{
			"mesh":14,
			"name":"Superficie  [328772]",
			"scale":[
				0.30480000376701355,
				0.30480000376701355,
				0.30480000376701355
			]
		},
		{
			"mesh":15,
			"name":"Subregi\u00f3n  [424961]",
			"scale":[
				0.30480000376701355,
				0.30480000376701355,
				0.30480000376701355
			]
		},
		{
			"mesh":16,
			"name":"Superficie  [443828]",
			"scale":[
				0.30480000376701355,
				0.30480000376701355,
				0.30480000376701355
			]
		},
		{
			"mesh":17,
			"name":"System Panel Glazed [396429]",
			"rotation":[
				0,
				-0.7071067094802856,
				0,
				0.7071068286895752
			],
			"scale":[
				0.30480000376701355,
				0.30480000376701355,
				0.30480000376701355
			],
			"translation":[
				-15.161574363708496,
				0,
				-2.616318464279175
			]
		}
	],
	"meshes":[
		{
			"name":"Rectangular Mullion 30mm Square [458426]_[458807] Geometry",
			"primitives":[
				{
					"attributes":{
						"POSITION":0,
						"NORMAL":1,
						"TEXCOORD_0":2
					},
					"indices":3
				}
			]
		},
		{
			"name":"Muro b\u00e1sico Muro en ladrillo 12 cm [216100] Geometry",
			"primitives":[
				{
					"attributes":{
						"POSITION":4,
						"NORMAL":5,
						"TEXCOORD_0":6
					},
					"indices":7
				}
			]
		},
		{
			"name":"M_W Shapes W310X38.7 [377727]_[377881] Geometry",
			"primitives":[
				{
					"attributes":{
						"POSITION":8,
						"NORMAL":9,
						"TEXCOORD_0":10
					},
					"indices":11
				}
			]
		},
		{
			"name":"M_Single-Flush 0762 x 2134mm [216736]_[216773] Geometry",
			"primitives":[
				{
					"attributes":{
						"POSITION":12,
						"NORMAL":13,
						"TEXCOORD_0":14
					},
					"indices":15
				}
			]
		},
		{
			"name":"Cubierta b\u00e1sica Generic Roof - 300mm [384559] Geometry",
			"primitives":[
				{
					"attributes":{
						"POSITION":16,
						"NORMAL":17,
						"TEXCOORD_0":18
					},
					"indices":19
				}
			]
		},
		{
			"name":"Closet sencillo con doble puerta 600 x 1200 x 2450mm 2 _49a92a0",
			"primitives":[
				{
					"attributes":{
						"POSITION":20,
						"NORMAL":21,
						"TEXCOORD_0":22,
						"TEXCOORD_1":23
					},
					"indices":24
				}
			]
		},
		{
			"name":"Suelo SUELO VERDE - 20 cm [387457] Geometry",
			"primitives":[
				{
					"attributes":{
						"POSITION":25,
						"NORMAL":26,
						"TEXCOORD_0":27
					},
					"indices":28
				}
			]
		},
		{
			"name":"Suelo Placa - Entrepiso 10cm con mortero de nivelaci\u00f3n_3b819a2",
			"primitives":[
				{
					"attributes":{
						"POSITION":29,
						"NORMAL":30,
						"TEXCOORD_0":31
					},
					"indices":32
				}
			]
		},
		{
			"name":"Suelo Solado 1.5cm - acabado en deck [443873] Geometry",
			"primitives":[
				{
					"attributes":{
						"POSITION":33,
						"NORMAL":34,
						"TEXCOORD_0":35
					},
					"indices":36
				}
			]
		},
		{
			"name":"Plataforma Pad 2 [328773] Geometry",
			"primitives":[
				{
					"attributes":{
						"POSITION":37,
						"NORMAL":38,
						"TEXCOORD_0":39
					},
					"indices":40
				}
			]
		},
		{
			"name":"Superficie  [212898] Geometry",
			"primitives":[
				{
					"attributes":{
						"POSITION":41,
						"NORMAL":42,
						"TEXCOORD_0":43
					},
					"indices":44
				}
			]
		},
		{
			"name":"Subregi\u00f3n  [317538] Geometry",
			"primitives":[
				{
					"attributes":{
						"POSITION":45,
						"NORMAL":46,
						"TEXCOORD_0":47
					},
					"indices":48
				}
			]
		},
		{
			"name":"Subregi\u00f3n  [318027] Geometry",
			"primitives":[
				{
					"attributes":{
						"POSITION":49,
						"NORMAL":50,
						"TEXCOORD_0":51
					},
					"indices":52
				}
			]
		},
		{
			"name":"Subregi\u00f3n  [320949] Geometry",
			"primitives":[
				{
					"attributes":{
						"POSITION":53,
						"NORMAL":54,
						"TEXCOORD_0":55
					},
					"indices":56
				}
			]
		},
		{
			"name":"Superficie  [328772] Geometry",
			"primitives":[
				{
					"attributes":{
						"POSITION":57,
						"NORMAL":58,
						"TEXCOORD_0":59
					},
					"indices":60
				}
			]
		},
		{
			"name":"Subregi\u00f3n  [424961] Geometry",
			"primitives":[
				{
					"attributes":{
						"POSITION":61,
						"NORMAL":62,
						"TEXCOORD_0":63
					},
					"indices":64
				}
			]
		},
		{
			"name":"Superficie  [443828] Geometry",
			"primitives":[
				{
					"attributes":{
						"POSITION":65,
						"NORMAL":66,
						"TEXCOORD_0":67
					},
					"indices":68
				}
			]
		},
		{
			"name":"System Panel Glazed [395652]_[396291] Geometry",
			"primitives":[
				{
					"attributes":{
						"POSITION":69,
						"NORMAL":70,
						"TEXCOORD_0":71
					},
					"indices":72
				}
			]
		}
	],
	"accessors":[
		{
			"bufferView":0,
			"componentType":5126,
			"count":26643,
			"max":[
				0.4658808708190918,
				3.3956775665283203,
				56.49811935424805
			],
			"min":[
				-17.921588897705078,
				-0.9977275133132935,
				-20.084732055664062
			],
			"type":"VEC3"
		},
		{
			"bufferView":1,
			"componentType":5126,
			"count":26643,
			"type":"VEC3"
		},
		{
			"bufferView":2,
			"componentType":5126,
			"count":26643,
			"type":"VEC2"
		},
		{
			"bufferView":3,
			"componentType":5123,
			"count":39954,
			"type":"SCALAR"
		},
		{
			"bufferView":4,
			"componentType":5126,
			"count":1747,
			"max":[
				-14.620902061462402,
				13.330413818359375,
				17.727886199951172
			],
			"min":[
				-94.16526794433594,
				-3.2808399200439453,
				-44.31400680541992
			],
			"type":"VEC3"
		},
		{
			"bufferView":5,
			"componentType":5126,
			"count":1747,
			"type":"VEC3"
		},
		{
			"bufferView":6,
			"componentType":5126,
			"count":1747,
			"type":"VEC2"
		},
		{
			"bufferView":7,
			"componentType":5123,
			"count":3318,
			"type":"SCALAR"
		},
		{
			"bufferView":8,
			"componentType":5126,
			"count":1440,
			"max":[
				33.464447021484375,
				4.813359260559082,
				41.42716979980469
			],
			"min":[
				-45.88295364379883,
				-13.270997047424316,
				-0.4166682958602905
			],
			"type":"VEC3"
		},
		{
			"bufferView":9,
			"componentType":5126,
			"count":1440,
			"type":"VEC3"
		},
		{
			"bufferView":10,
			"componentType":5126,
			"count":1440,
			"type":"VEC2"
		},
		{
			"bufferView":11,
			"componentType":5123,
			"count":2640,
			"type":"SCALAR"
		},
		{
			"bufferView":12,
			"componentType":5126,
			"count":1416,
			"max":[
				21.456695556640625,
				7.2506561279296875,
				0.2788713872432709
			],
			"min":[
				-49.30043411254883,
				-1.6404199600219727,
				-15.178000450134277
			],
			"type":"VEC3"
		},
		{
			"bufferView":13,
			"componentType":5126,
			"count":1416,
			"type":"VEC3"
		},
		{
			"bufferView":14,
			"componentType":5126,
			"count":1416,
			"type":"VEC2"
		},
		{
			"bufferView":15,
			"componentType":5123,
			"count":2592,
			"type":"SCALAR"
		},
		{
			"bufferView":16,
			"componentType":5126,
			"count":312,
			"max":[
				-11.340062141418457,
				15.057099342346191,
				4.518312454223633
			],
			"min":[
				-95.08931732177734,
				7.381889820098877,
				-46.453651428222656
			],
			"type":"VEC3"
		},
		{
			"bufferView":17,
			"componentType":5126,
			"count":312,
			"type":"VEC3"
		},
		{
			"bufferView":18,
			"componentType":5126,
			"count":312,
			"type":"VEC2"
		},
		{
			"bufferView":19,
			"componentType":5123,
			"count":612,
			"type":"SCALAR"
		},
		{
			"bufferView":20,
			"componentType":5126,
			"count":2616,
			"max":[
				3.1782732009887695,
				8.038057327270508,
				17.07136344909668
			],
			"min":[
				-66.33214569091797,
				0,
				-0.5249757766723633
			],
			"type":"VEC3"
		},
		{
			"bufferView":21,
			"componentType":5126,
			"count":2616,
			"type":"VEC3"
		},
		{
			"bufferView":22,
			"componentType":5126,
			"count":2616,
			"type":"VEC2"
		},
		{
			"bufferView":23,
			"componentType":5126,
			"count":2616,
			"type":"VEC2"
		},
		{
			"bufferView":24,
			"componentType":5123,
			"count":5838,
			"type":"SCALAR"
		},
		{
			"bufferView":25,
			"componentType":5126,
			"count":246,
			"max":[
				-15.014602661132812,
				-0.2624672055244446,
				-23.13916778564453
			],
			"min":[
				-75.31000518798828,
				-1.3123359680175781,
				-42.4414176940918
			],
			"type":"VEC3"
		},
		{
			"bufferView":26,
			"componentType":5126,
			"count":246,
			"type":"VEC3"
		},
		{
			"bufferView":27,
			"componentType":5126,
			"count":246,
			"type":"VEC2"
		},
		{
			"bufferView":28,
			"componentType":5123,
			"count":588,
			"type":"SCALAR"
		},
		{
			"bufferView":29,
			"componentType":5126,
			"count":425,
			"max":[
				-14.620902061462402,
				0,
				17.949064254760742
			],
			"min":[
				-94.16526794433594,
				-8.5478515625,
				-44.31400680541992
			],
			"type":"VEC3"
		},
		{
			"bufferView":30,
			"componentType":5126,
			"count":425,
			"type":"VEC3"
		},
		{
			"bufferView":31,
			"componentType":5126,
			"count":425,
			"type":"VEC2"
		},
		{
			"bufferView":32,
			"componentType":5123,
			"count":855,
			"type":"SCALAR"
		},
		{
			"bufferView":33,
			"componentType":5126,
			"count":120,
			"max":[
				-44.53025817871094,
				0,
				17.949064254760742
			],
			"min":[
				-96.729736328125,
				-1.1482939720153809,
				-20.317646026611328
			],
			"type":"VEC3"
		},
		{
			"bufferView":34,
			"componentType":5126,
			"count":120,
			"type":"VEC3"
		},
		{
			"bufferView":35,
			"componentType":5126,
			"count":120,
			"type":"VEC2"
		},
		{
			"bufferView":36,
			"componentType":5123,
			"count":216,
			"type":"SCALAR"
		},
		{
			"bufferView":37,
			"componentType":5126,
			"count":144,
			"max":[
				-14.620902061462402,
				-0.8202099800109863,
				17.334186553955078
			],
			"min":[
				-96.729736328125,
				-4.280839920043945,
				-44.31400680541992
			],
			"type":"VEC3"
		},
		{
			"bufferView":38,
			"componentType":5126,
			"count":144,
			"type":"VEC3"
		},
		{
			"bufferView":39,
			"componentType":5126,
			"count":144,
			"type":"VEC2"
		},
		{
			"bufferView":40,
			"componentType":5123,
			"count":264,
			"type":"SCALAR"
		},
		{
			"bufferView":41,
			"componentType":5126,
			"count":1004,
			"max":[
				95.80847930908203,
				2.892059326171875,
				49.9146728515625
			],
			"min":[
				-124.72465515136719,
				-82.09671020507812,
				-53.95588684082031
			],
			"type":"VEC3"
		},
		{
			"bufferView":42,
			"componentType":5126,
			"count":1004,
			"type":"VEC3"
		},
		{
			"bufferView":43,
			"componentType":5126,
			"count":1004,
			"type":"VEC2"
		},
		{
			"bufferView":44,
			"componentType":5123,
			"count":3327,
			"type":"SCALAR"
		},
		{
			"bufferView":45,
			"componentType":5126,
			"count":65,
			"max":[
				-98.38352966308594,
				-11.725610733032227,
				49.9146728515625
			],
			"min":[
				-124.72465515136719,
				-82.09671020507812,
				12.966607093811035
			],
			"type":"VEC3"
		},
		{
			"bufferView":46,
			"componentType":5126,
			"count":65,
			"type":"VEC3"
		},
		{
			"bufferView":47,
			"componentType":5126,
			"count":65,
			"type":"VEC2"
		},
		{
			"bufferView":48,
			"componentType":5123,
			"count":183,
			"type":"SCALAR"
		},
		{
			"bufferView":49,
			"componentType":5126,
			"count":92,
			"max":[
				-90.1873550415039,
				-7.869612693786621,
				49.9146728515625
			],
			"min":[
				-124.72465515136719,
				-82.09671020507812,
				-8.451201438903809
			],
			"type":"VEC3"
		},
		{
			"bufferView":50,
			"componentType":5126,
			"count":92,
			"type":"VEC3"
		},
		{
			"bufferView":51,
			"componentType":5126,
			"count":92,
			"type":"VEC2"
		},
		{
			"bufferView":52,
			"componentType":5123,
			"count":264,
			"type":"SCALAR"
		},
		{
			"bufferView":53,
			"componentType":5126,
			"count":57,
			"max":[
				95.80847930908203,
				-14.389939308166504,
				49.9146728515625
			],
			"min":[
				7.552993297576904,
				-82.09671020507812,
				-7.853306770324707
			],
			"type":"VEC3"
		},
		{
			"bufferView":54,
			"componentType":5126,
			"count":57,
			"type":"VEC3"
		},
		{
			"bufferView":55,
			"componentType":5126,
			"count":57,
			"type":"VEC2"
		},
		{
			"bufferView":56,
			"componentType":5123,
			"count":156,
			"type":"SCALAR"
		},
		{
			"bufferView":57,
			"componentType":5126,
			"count":210,
			"max":[
				-14.620902061462402,
				0.8189637660980225,
				7.372642993927002
			],
			"min":[
				-96.729736328125,
				-3.2451748847961426,
				-44.31400680541992
			],
			"type":"VEC3"
		},
		{
			"bufferView":58,
			"componentType":5126,
			"count":210,
			"type":"VEC3"
		},
		{
			"bufferView":59,
			"componentType":5126,
			"count":210,
			"type":"VEC2"
		},
		{
			"bufferView":60,
			"componentType":5123,
			"count":546,
			"type":"SCALAR"
		},
		{
			"bufferView":61,
			"componentType":5126,
			"count":38,
			"max":[
				-84.98432922363281,
				1.6314948797225952,
				-34.884517669677734
			],
			"min":[
				-124.72465515136719,
				-82.09671020507812,
				-49.829097747802734
			],
			"type":"VEC3"
		},
		{
			"bufferView":62,
			"componentType":5126,
			"count":38,
			"type":"VEC3"
		},
		{
			"bufferView":63,
			"componentType":5126,
			"count":38,
			"type":"VEC2"
		},
		{
			"bufferView":64,
			"componentType":5123,
			"count":102,
			"type":"SCALAR"
		},
		{
			"bufferView":65,
			"componentType":5126,
			"count":26,
			"max":[
				-45.02695083618164,
				-3.1181015968322754,
				17.334186553955078
			],
			"min":[
				-50.93246078491211,
				-4.281363487243652,
				13.069093704223633
			],
			"type":"VEC3"
		},
		{
			"bufferView":66,
			"componentType":5126,
			"count":26,
			"type":"VEC3"
		},
		{
			"bufferView":67,
			"componentType":5126,
			"count":26,
			"type":"VEC2"
		},
		{
			"bufferView":68,
			"componentType":5123,
			"count":66,
			"type":"SCALAR"
		},
		{
			"bufferView":69,
			"componentType":5126,
			"count":3544,
			"max":[
				6.81922721862793,
				7.841207981109619,
				41.85475540161133
			],
			"min":[
				-21.117122650146484,
				-7.430896342697224e-09,
				-34.72809600830078
			],
			"type":"VEC3"
		},
		{
			"bufferView":70,
			"componentType":5126,
			"count":3544,
			"type":"VEC3"
		},
		{
			"bufferView":71,
			"componentType":5126,
			"count":3544,
			"type":"VEC2"
		},
		{
			"bufferView":72,
			"componentType":5123,
			"count":5400,
			"type":"SCALAR"
		}
	],
	"bufferViews":[
		{
			"buffer":0,
			"byteLength":319716,
			"byteOffset":0,
			"target":34962
		},
		{
			"buffer":0,
			"byteLength":319716,
			"byteOffset":319716,
			"target":34962
		},
		{
			"buffer":0,
			"byteLength":213144,
			"byteOffset":639432,
			"target":34962
		},
		{
			"buffer":0,
			"byteLength":79908,
			"byteOffset":852576,
			"target":34963
		},
		{
			"buffer":0,
			"byteLength":20964,
			"byteOffset":932484,
			"target":34962
		},
		{
			"buffer":0,
			"byteLength":20964,
			"byteOffset":953448,
			"target":34962
		},
		{
			"buffer":0,
			"byteLength":13976,
			"byteOffset":974412,
			"target":34962
		},
		{
			"buffer":0,
			"byteLength":6636,
			"byteOffset":988388,
			"target":34963
		},
		{
			"buffer":0,
			"byteLength":17280,
			"byteOffset":995024,
			"target":34962
		},
		{
			"buffer":0,
			"byteLength":17280,
			"byteOffset":1012304,
			"target":34962
		},
		{
			"buffer":0,
			"byteLength":11520,
			"byteOffset":1029584,
			"target":34962
		},
		{
			"buffer":0,
			"byteLength":5280,
			"byteOffset":1041104,
			"target":34963
		},
		{
			"buffer":0,
			"byteLength":16992,
			"byteOffset":1046384,
			"target":34962
		},
		{
			"buffer":0,
			"byteLength":16992,
			"byteOffset":1063376,
			"target":34962
		},
		{
			"buffer":0,
			"byteLength":11328,
			"byteOffset":1080368,
			"target":34962
		},
		{
			"buffer":0,
			"byteLength":5184,
			"byteOffset":1091696,
			"target":34963
		},
		{
			"buffer":0,
			"byteLength":3744,
			"byteOffset":1096880,
			"target":34962
		},
		{
			"buffer":0,
			"byteLength":3744,
			"byteOffset":1100624,
			"target":34962
		},
		{
			"buffer":0,
			"byteLength":2496,
			"byteOffset":1104368,
			"target":34962
		},
		{
			"buffer":0,
			"byteLength":1224,
			"byteOffset":1106864,
			"target":34963
		},
		{
			"buffer":0,
			"byteLength":31392,
			"byteOffset":1108088,
			"target":34962
		},
		{
			"buffer":0,
			"byteLength":31392,
			"byteOffset":1139480,
			"target":34962
		},
		{
			"buffer":0,
			"byteLength":20928,
			"byteOffset":1170872,
			"target":34962
		},
		{
			"buffer":0,
			"byteLength":20928,
			"byteOffset":1191800,
			"target":34962
		},
		{
			"buffer":0,
			"byteLength":11676,
			"byteOffset":1212728,
			"target":34963
		},
		{
			"buffer":0,
			"byteLength":2952,
			"byteOffset":1224404,
			"target":34962
		},
		{
			"buffer":0,
			"byteLength":2952,
			"byteOffset":1227356,
			"target":34962
		},
		{
			"buffer":0,
			"byteLength":1968,
			"byteOffset":1230308,
			"target":34962
		},
		{
			"buffer":0,
			"byteLength":1176,
			"byteOffset":1232276,
			"target":34963
		},
		{
			"buffer":0,
			"byteLength":5100,
			"byteOffset":1233452,
			"target":34962
		},
		{
			"buffer":0,
			"byteLength":5100,
			"byteOffset":1238552,
			"target":34962
		},
		{
			"buffer":0,
			"byteLength":3400,
			"byteOffset":1243652,
			"target":34962
		},
		{
			"buffer":0,
			"byteLength":1710,
			"byteOffset":1247052,
			"target":34963
		},
		{
			"buffer":0,
			"byteLength":1440,
			"byteOffset":1248764,
			"target":34962
		},
		{
			"buffer":0,
			"byteLength":1440,
			"byteOffset":1250204,
			"target":34962
		},
		{
			"buffer":0,
			"byteLength":960,
			"byteOffset":1251644,
			"target":34962
		},
		{
			"buffer":0,
			"byteLength":432,
			"byteOffset":1252604,
			"target":34963
		},
		{
			"buffer":0,
			"byteLength":1728,
			"byteOffset":1253036,
			"target":34962
		},
		{
			"buffer":0,
			"byteLength":1728,
			"byteOffset":1254764,
			"target":34962
		},
		{
			"buffer":0,
			"byteLength":1152,
			"byteOffset":1256492,
			"target":34962
		},
		{
			"buffer":0,
			"byteLength":528,
			"byteOffset":1257644,
			"target":34963
		},
		{
			"buffer":0,
			"byteLength":12048,
			"byteOffset":1258172,
			"target":34962
		},
		{
			"buffer":0,
			"byteLength":12048,
			"byteOffset":1270220,
			"target":34962
		},
		{
			"buffer":0,
			"byteLength":8032,
			"byteOffset":1282268,
			"target":34962
		},
		{
			"buffer":0,
			"byteLength":6654,
			"byteOffset":1290300,
			"target":34963
		},
		{
			"buffer":0,
			"byteLength":780,
			"byteOffset":1296956,
			"target":34962
		},
		{
			"buffer":0,
			"byteLength":780,
			"byteOffset":1297736,
			"target":34962
		},
		{
			"buffer":0,
			"byteLength":520,
			"byteOffset":1298516,
			"target":34962
		},
		{
			"buffer":0,
			"byteLength":366,
			"byteOffset":1299036,
			"target":34963
		},
		{
			"buffer":0,
			"byteLength":1104,
			"byteOffset":1299404,
			"target":34962
		},
		{
			"buffer":0,
			"byteLength":1104,
			"byteOffset":1300508,
			"target":34962
		},
		{
			"buffer":0,
			"byteLength":736,
			"byteOffset":1301612,
			"target":34962
		},
		{
			"buffer":0,
			"byteLength":528,
			"byteOffset":1302348,
			"target":34963
		},
		{
			"buffer":0,
			"byteLength":684,
			"byteOffset":1302876,
			"target":34962
		},
		{
			"buffer":0,
			"byteLength":684,
			"byteOffset":1303560,
			"target":34962
		},
		{
			"buffer":0,
			"byteLength":456,
			"byteOffset":1304244,
			"target":34962
		},
		{
			"buffer":0,
			"byteLength":312,
			"byteOffset":1304700,
			"target":34963
		},
		{
			"buffer":0,
			"byteLength":2520,
			"byteOffset":1305012,
			"target":34962
		},
		{
			"buffer":0,
			"byteLength":2520,
			"byteOffset":1307532,
			"target":34962
		},
		{
			"buffer":0,
			"byteLength":1680,
			"byteOffset":1310052,
			"target":34962
		},
		{
			"buffer":0,
			"byteLength":1092,
			"byteOffset":1311732,
			"target":34963
		},
		{
			"buffer":0,
			"byteLength":456,
			"byteOffset":1312824,
			"target":34962
		},
		{
			"buffer":0,
			"byteLength":456,
			"byteOffset":1313280,
			"target":34962
		},
		{
			"buffer":0,
			"byteLength":304,
			"byteOffset":1313736,
			"target":34962
		},
		{
			"buffer":0,
			"byteLength":204,
			"byteOffset":1314040,
			"target":34963
		},
		{
			"buffer":0,
			"byteLength":312,
			"byteOffset":1314244,
			"target":34962
		},
		{
			"buffer":0,
			"byteLength":312,
			"byteOffset":1314556,
			"target":34962
		},
		{
			"buffer":0,
			"byteLength":208,
			"byteOffset":1314868,
			"target":34962
		},
		{
			"buffer":0,
			"byteLength":132,
			"byteOffset":1315076,
			"target":34963
		},
		{
			"buffer":0,
			"byteLength":42528,
			"byteOffset":1315208,
			"target":34962
		},
		{
			"buffer":0,
			"byteLength":42528,
			"byteOffset":1357736,
			"target":34962
		},
		{
			"buffer":0,
			"byteLength":28352,
			"byteOffset":1400264,
			"target":34962
		},
		{
			"buffer":0,
			"byteLength":10800,
			"byteOffset":1428616,
			"target":34963
		}
	],
	"buffers":[
		{
			"byteLength":1439416,
			"uri":"Proyecto_0.bin"
		}
	]
}
